<?xml version="1.0" encoding="UTF-8"?>
<svg id="Layer_1" data-name="Layer 1" xmlns="http://www.w3.org/2000/svg" viewBox="0 0 902.88 476.7">
  <defs>
    <style>
      .cls-1 {
        stroke-width: 0px;
      }
    </style>
  </defs>
  <path class="cls-1" d="m0,475.04c11.71-36.87,23.03-72.84,34.57-108.74,26.8-83.4,53.68-166.77,80.56-250.15,4.64-14.4,9.65-28.68,14.1-43.14,12.18-39.57,39.88-61.64,79.38-69.66,36.84-7.48,71.71-3.04,103.22,19.39,20.3,14.45,29.16,35.85,36.68,58.13,11.06,32.75,22.1,65.52,32.65,98.44,21.21,66.23,42.08,132.56,63.09,198.85,8.95,28.25,17.9,56.49,26.83,84.74,1.25,3.95,2.34,7.95,3.93,13.42-19.65,0-37.94-.03-56.23,0-12.41.03-24.83-.13-37.22.33-7.31.27-11.13-1.76-13.57-9.5-22.54-71.44-45.56-142.72-68.53-214.03-14.09-43.74-28.29-87.44-42.56-131.12-1.52-4.65-3.46-9.26-5.91-13.48-7.5-12.86-20.59-13.03-26.83.55-6.45,14.03-11.16,28.92-15.89,43.67-29.4,91.8-58.57,183.68-87.85,275.52-4.28,13.44-8.33,26.97-13.37,40.12-1.26,3.28-5.92,7.42-9.09,7.48-31.16.57-62.33.36-93.49.33-.99,0-1.97-.49-4.48-1.16Z"/>
  <path class="cls-1" d="m902.88,1.65c-11.71,36.87-23.03,72.84-34.57,108.74-26.8,83.4-53.68,166.77-80.56,250.15-4.64,14.4-9.65,28.68-14.1,43.14-12.18,39.57-39.88,61.64-79.38,69.66-36.84,7.48-71.71,3.04-103.22-19.39-20.3-14.45-29.16-35.85-36.68-58.13-11.06-32.75-22.1-65.52-32.65-98.44-21.21-66.23-42.08-132.56-63.09-198.85-8.95-28.25-17.9-56.49-26.83-84.74-1.25-3.95-2.34-7.95-3.93-13.42,19.65,0,37.94.03,56.23,0,12.41-.03,24.83.13,37.22-.33,7.31-.27,11.13,1.76,13.57,9.5,22.54,71.44,45.56,142.72,68.53,214.03,14.09,43.74,28.29,87.44,42.56,131.12,1.52,4.65,3.46,9.26,5.91,13.48,7.5,12.86,20.59,13.03,26.83-.55,6.45-14.03,11.16-28.92,15.89-43.67,29.4-91.8,58.57-183.68,87.85-275.52,4.28-13.44,8.33-26.97,13.37-40.12,1.26-3.28,5.92-7.42,9.09-7.48,31.16-.57,62.33-.36,93.49-.33.99,0,1.97.49,4.48,1.16Z"/>
</svg>